<svg width="1200" height="160" viewBox="0 0 1200 160" xmlns="http://www.w3.org/2000/svg">
  <defs>
    <linearGradient id="bg3" x1="0" y1="0" x2="1" y2="1">
      <stop offset="0%" stop-color="#0c1117"/><stop offset="100%" stop-color="#0a0f16"/>
    </linearGradient>
    <pattern id="grid3" width="40" height="59.428" patternTransform="scale(1.1)" patternUnits="userSpaceOnUse">
        <path fill="none" stroke="#fff" stroke-linecap="square" stroke-opacity=".05" d="M0 70.975V47.881m20-1.692L8.535 52.808v13.239L20 72.667l11.465-6.62V52.808zm0-32.95 11.465-6.62V-6.619L20-13.24 8.535-6.619V6.619L20 13.24m8.535 4.927v13.238L40 38.024l11.465-6.62V18.166L40 11.546zM20 36.333 0 47.88m0 0v23.094m0 0 20 11.548 20-11.548V47.88m0 0L20 36.333m0 0 20 11.549M0 11.547l-11.465 6.619v13.239L0 38.025l11.465-6.62v-13.24L0 11.548v-23.094l20-11.547 20 11.547v23.094M20 36.333V13.24"/>
		</pattern>
    <linearGradient id="accent3" x1="0" y1="0" x2="1" y2="0">
      <stop offset="0%" stop-color="#f97316"/>
      <stop offset="100%" stop-color="#fb923c"/>
    </linearGradient>
    <filter id="ds3" x="-20%" y="-20%" width="140%" height="140%">
      <feDropShadow dx="0" dy="3" stdDeviation="6" flood-color="#000" flood-opacity="0.45"/>
    </filter>
    <linearGradient id="glow3" x1="0" y1="0" x2="1" y2="1">
      <stop offset="0%" stop-color="#f59e0b" stop-opacity="0.48"/>
      <stop offset="100%" stop-color="#fde68a" stop-opacity="0.28"/>
    </linearGradient>
  </defs>

  <rect width="100%" height="100%" rx="18" fill="url(#bg3)"/>
  <rect width="100%" height="100%" rx="18" fill="url(#grid3)"/>


  <path d="M1158 28H30V132H1158C1167.94 132 1176 123.941 1176 114V46C1176 36.0589 1167.94 28 1158 28Z" fill="#0E1622" fill-opacity="0.72"/>
  <path d="M1158 28.5C1167.67 28.5 1175.5 36.335 1175.5 46V114C1175.5 123.665 1167.67 131.5 1158 131.5H30.5V28.5H1158Z" stroke="#1F2937" stroke-opacity="0.6" fill="none"/>
  <path d="M31 132V28C27.134 28 24 31.134 24 35V125C24 128.866 27.134 132 31 132Z" fill="url(#accent3)"/>
  <text x="24" y="64" font-size="32" font-weight="800" fill="#e6edf3" font-family="Jetbrains Mono, ui-sans-serif, system-ui" transform="translate(24,28)" filter="url(#ds3)">Plugins</text>

  <image href="https://cdn.jsdelivr.net/gh/vffuunnyy/test-readme/assets/naruto.gif" x="1000" y="5" height="140" opacity="1" preserveAspectRatio="xMidYMid slice" transform="scale(-1, 1) translate(-2150, 0)" />
</svg>


